<svg width="194" height="151" viewBox="0 0 194 151" fill="none" xmlns="http://www.w3.org/2000/svg">
<path d="M97.2145 94.5255C107.274 94.5255 115.429 86.1251 115.429 75.7627C115.429 65.4004 107.274 57 97.2145 57C87.1549 57 79 65.4004 79 75.7627C79 86.1251 87.1549 94.5255 97.2145 94.5255Z" fill="black"/>
<path d="M77.1426 133.498L69.1934 149.599" stroke="black" stroke-width="2.75" stroke-linecap="round" stroke-linejoin="round"/>
<path d="M97.0157 133.498V149.599" stroke="black" stroke-width="2.75" stroke-linecap="round" stroke-linejoin="round"/>
<path d="M116.889 133.498L124.838 149.599" stroke="black" stroke-width="2.75" stroke-linecap="round" stroke-linejoin="round"/>
<path d="M116.889 18.1005L124.838 2" stroke="black" stroke-width="2.75" stroke-linecap="round" stroke-linejoin="round"/>
<path d="M97.0157 18.1005V2" stroke="black" stroke-width="2.75" stroke-linecap="round" stroke-linejoin="round"/>
<path d="M77.1426 18.1005L69.1934 2" stroke="black" stroke-width="2.75" stroke-linecap="round" stroke-linejoin="round"/>
<path d="M192 75.8149C164.62 97.9547 130.735 110.222 95.7012 110.678C61.3917 110.573 28.2158 98.2292 2 75.8149C28.2131 53.3958 61.3908 41.0514 95.7012 40.9517C130.737 41.4004 164.624 53.6686 192 75.8149Z" stroke="black" stroke-width="2.75" stroke-linecap="round" stroke-linejoin="round"/>
<path d="M123 43.8966C131.555 51.6898 136.95 63.0868 136.95 75.7831C136.95 88.66 131.4 100.2 122.633 108M68.8442 43.5C60.0337 51.3005 54.4528 62.8698 54.4528 75.7831C54.4528 88.7724 60.0996 100.402 69 108.203" stroke="black" stroke-width="2.75" stroke-linecap="round" stroke-linejoin="round"/>
</svg>
