<?xml version="1.0" encoding="utf-8"?>
<!-- Generator: Adobe Illustrator 18.0.0, SVG Export Plug-In . SVG Version: 6.00 Build 0)  -->
<!DOCTYPE svg PUBLIC "-//W3C//DTD SVG 1.1//EN" "http://www.w3.org/Graphics/SVG/1.1/DTD/svg11.dtd">
<svg version="1.1" id="Layer_1" xmlns="http://www.w3.org/2000/svg" xmlns:xlink="http://www.w3.org/1999/xlink" x="0px" y="0px"
	 viewBox="0 0 23.7 21" enable-background="new 0 0 23.7 21" xml:space="preserve">
<g id="Open_Eye">
	<path id="XMLID_153_" fill="#FFFFFF" d="M22.1,10.4c-2.4,3.4-6.2,5.5-10.2,5.5c-4.1,0-7.8-2-10.2-5.5H0l0.1,0.2
		c2.6,4.2,7,6.7,11.7,6.7c4.7,0,9.1-2.5,11.7-6.7l0.1-0.2H22.1z"/>
	<rect id="XMLID_150_" x="11.3" y="17.2" fill="#FFFFFF" width="1.3" height="3.6"/>
	<polygon id="XMLID_149_" fill="#FFFFFF" points="16.2,16.3 17.7,19.9 18.8,19.4 17.3,15.8 	"/>
	<polygon id="XMLID_148_" fill="#FFFFFF" points="20.3,14 22.6,17.1 23.6,16.3 21.3,13.2 	"/>
	<polygon id="XMLID_147_" fill="#FFFFFF" points="5.2,19.6 6.4,20 7.7,16.2 6.5,15.8 	"/>
	<polygon id="XMLID_146_" fill="#FFFFFF" points="0.3,16.4 1.3,17.2 3.6,14.1 2.6,13.3 	"/>
	<path id="XMLID_145_" fill="#FFFFFF" d="M1.6,10.4C4,7,7.8,5,11.8,5c4.1,0,7.8,2,10.2,5.5h1.6l-0.1-0.2C21,6,16.6,3.5,11.8,3.5
		C7.1,3.5,2.7,6,0.1,10.2L0,10.4H1.6z"/>
	<rect id="XMLID_142_" x="11.1" fill="#FFFFFF" width="1.3" height="3.6"/>
	<polygon id="XMLID_141_" fill="#FFFFFF" points="7.5,4.6 6,0.9 4.9,1.4 6.4,5.1 	"/>
	<polygon id="XMLID_140_" fill="#FFFFFF" points="0.1,4.6 2.4,7.7 3.4,6.9 1.1,3.8 	"/>
	<polygon id="XMLID_139_" fill="#FFFFFF" points="16,4.7 17.2,5.1 18.5,1.3 17.3,0.8 	"/>
	<polygon id="XMLID_138_" fill="#FFFFFF" points="21.1,7.6 23.4,4.5 22.4,3.7 20.1,6.8 	"/>
	<path id="XMLID_137_" fill="#FFFFFF" d="M11.8,14.1c2,0,3.7-1.7,3.7-3.7c0-2.1-1.7-3.7-3.7-3.7s-3.7,1.7-3.7,3.7
		C8.1,12.5,9.8,14.1,11.8,14.1"/>
</g>
</svg>
