<?xml version="1.0" encoding="utf-8"?>
<!-- Generator: Adobe Illustrator 18.0.0, SVG Export Plug-In . SVG Version: 6.00 Build 0)  -->
<!DOCTYPE svg PUBLIC "-//W3C//DTD SVG 1.1//EN" "http://www.w3.org/Graphics/SVG/1.1/DTD/svg11.dtd">
<svg version="1.1" id="Layer_1" xmlns="http://www.w3.org/2000/svg" xmlns:xlink="http://www.w3.org/1999/xlink" x="0px" y="0px"
	 viewBox="0 0 23.7 21" enable-background="new 0 0 23.7 21" xml:space="preserve">
<g id="Closed_Eye">
	<path fill="#FFFFFF" d="M22.1,10.5C19.7,14,15.9,16,11.9,16C7.8,16,4,14,1.6,10.5H0l0.1,0.2c2.6,4.2,7,6.7,11.7,6.7
		c4.7,0,9.1-2.5,11.7-6.7l0.1-0.2H22.1z"/>
	<rect x="11.3" y="17.3" fill="#FFFFFF" width="1.3" height="3.6"/>
	<polygon fill="#FFFFFF" points="16.2,16.4 17.7,20 18.8,19.5 17.3,15.9 	"/>
	<polygon fill="#FFFFFF" points="20.3,14.1 22.6,17.2 23.6,16.4 21.3,13.3 	"/>
	<polygon fill="#FFFFFF" points="6.5,15.9 5.2,19.7 6.4,20.1 7.7,16.3 	"/>
	<polygon fill="#FFFFFF" points="2.6,13.4 0.3,16.5 1.3,17.3 3.6,14.2 	"/>
</g>
</svg>
