<svg width="221" height="137" viewBox="0 0 221 137" fill="none" xmlns="http://www.w3.org/2000/svg">
<path d="M45.6012 123.281C43.8222 122.46 42.4462 120.975 41.776 119.152C41.1059 117.329 41.1965 115.317 42.0278 113.56C42.8591 111.803 44.3634 110.444 46.2092 109.782C48.055 109.12 50.0913 109.21 51.8703 110.031V110.031C53.4918 110.939 54.7067 112.417 55.2719 114.172C55.8371 115.926 55.7112 117.826 54.9191 119.492C54.127 121.159 52.7273 122.468 50.9998 123.159C49.2723 123.85 47.3441 123.872 45.6012 123.219V123.281Z" fill="black"/>
<path d="M19.3027 117.059H14.8203" stroke="black" stroke-width="2.75" stroke-linecap="round" stroke-linejoin="round"/>
<path d="M2 103.994C2 103.994 5.82385 117.028 16.1992 117.028" stroke="black" stroke-width="2.75" stroke-linecap="round" stroke-linejoin="round"/>
<path d="M2 130.093C2 130.093 5.82385 117.028 16.1992 117.028" stroke="black" stroke-width="2.75" stroke-linecap="round" stroke-linejoin="round"/>
<path d="M21.4029 122.384C27.2645 129.133 47.9524 135.139 56.541 135.139C58.5161 135.099 60.4812 134.85 62.4026 134.396C80.3635 129.504 92.0556 126.532 112.367 126.532H189.634C204.492 126.532 218.91 117.523 218.91 98.0192C218.91 78.5151 204.492 69.506 189.634 69.506H85.6924C84.822 69.5581 83.9502 69.4303 83.1326 69.1307C82.315 68.8312 81.5697 68.3664 80.9443 67.7662C80.3189 67.166 79.8273 66.4435 79.5006 65.645C79.174 64.8464 79.0194 63.9893 79.0472 63.1285C79.028 62.2874 79.1915 61.4521 79.527 60.6789C79.8625 59.9057 80.3623 59.2125 80.9921 58.6461C81.622 58.0798 82.3673 57.6536 83.1781 57.396C83.989 57.1385 84.8464 57.0557 85.6924 57.1534H159.072C162.816 57.2773 166.548 56.656 170.044 55.3263C173.54 53.9966 176.729 51.9858 179.423 49.4136C182.116 46.8413 184.257 43.7602 185.72 40.3536C187.183 36.9471 187.936 33.2846 187.936 29.5844C187.936 25.8842 187.183 22.2218 185.72 18.8153C184.257 15.4087 182.116 12.3276 179.423 9.75531C176.729 7.18306 173.54 5.17224 170.044 3.84257C166.548 2.51289 162.816 1.89154 159.072 2.01548H103.246C101.775 1.93728 100.303 2.15596 98.9201 2.65818C97.5373 3.16039 96.2722 3.93561 95.2028 4.93654C94.1333 5.93747 93.2817 7.14314 92.6996 8.47994C92.1175 9.81673 91.8176 11.2566 91.8176 12.7118C91.8176 14.167 92.1175 15.6069 92.6996 16.9437C93.2817 18.2805 94.1333 19.4861 95.2028 20.4871C96.2722 21.488 97.5373 22.2632 98.9201 22.7654C100.303 23.2677 101.775 23.4863 103.246 23.4081H159.072C159.909 23.4079 160.737 23.573 161.508 23.8938C162.279 24.2146 162.977 24.6846 163.561 25.276C164.145 25.8675 164.604 26.5685 164.91 27.3377C165.215 28.1068 165.362 28.9287 165.341 29.7547C165.342 30.5593 165.178 31.3558 164.861 32.0969C164.544 32.8379 164.079 33.5085 163.494 34.0687C162.909 34.6289 162.217 35.0673 161.457 35.358C160.697 35.6487 159.886 35.7857 159.072 35.7608H83.8431C67.042 35.7608 54.9424 47.0298 54.9424 63.1285C54.9424 79.2271 67.042 90.5272 83.8431 90.5272H187.69C188.744 90.4113 189.811 90.5204 190.818 90.8473C191.825 91.1741 192.75 91.7109 193.528 92.4214C194.307 93.1319 194.922 93.9995 195.332 94.9653C195.742 95.9311 195.936 96.9726 195.903 98.0192C195.903 102.508 192.768 105.14 187.69 105.14H112.462C88.2629 105.14 77.9814 103.282 62.4967 99.1338C60.5709 98.7043 58.6083 98.4555 56.6351 98.3907C48.0465 98.3907 27.7661 103.282 21.4971 112.26C21.0341 113.979 20.7815 115.746 20.7448 117.523C20.7278 119.166 20.9494 120.803 21.4029 122.384V122.384Z" stroke="black" stroke-width="2.75" stroke-linecap="round" stroke-linejoin="round"/>
</svg>
