<?xml version="1.0" encoding="utf-8"?>
<!-- Generator: Adobe Illustrator 18.0.0, SVG Export Plug-In . SVG Version: 6.00 Build 0)  -->
<!DOCTYPE svg PUBLIC "-//W3C//DTD SVG 1.1//EN" "http://www.w3.org/Graphics/SVG/1.1/DTD/svg11.dtd">
<svg version="1.1" id="Layer_1" xmlns="http://www.w3.org/2000/svg" xmlns:xlink="http://www.w3.org/1999/xlink" x="0px" y="0px"
	 viewBox="0 0 54 24" enable-background="new 0 0 54 24" xml:space="preserve">
<g id="Lrge">
	<g>
		<path fill="#FFFFFF" d="M12,24C5.4,24,0,18.6,0,12S5.4,0,12,0s12,5.4,12,12S18.6,24,12,24z M12,1.5C6.2,1.5,1.5,6.2,1.5,12
			S6.2,22.5,12,22.5S22.5,17.8,22.5,12S17.8,1.5,12,1.5z"/>
	</g>
	<g>
		<path fill="#FFFFFF" d="M26.7,24c-6.6,0-12-5.4-12-12s5.4-12,12-12s12,5.4,12,12S33.3,24,26.7,24z M26.7,1.5
			c-5.8,0-10.5,4.7-10.5,10.5s4.7,10.5,10.5,10.5S37.2,17.8,37.2,12S32.5,1.5,26.7,1.5z"/>
	</g>
	<g>
		<path fill="#FFFFFF" d="M42,24c-6.6,0-12-5.4-12-12S35.4,0,42,0s12,5.4,12,12S48.6,24,42,24z M42,1.5c-5.8,0-10.5,4.7-10.5,10.5
			S36.2,22.5,42,22.5S52.5,17.8,52.5,12S47.8,1.5,42,1.5z"/>
	</g>
</g>
</svg>
